<svg class="svg">
  <clipPath id="section-clip" clipPathUnits="objectBoundingBox" transform="scale(0.0007974 0.0013477) rotate(1.1)">
      <path fill-rule="evenodd" fill="rgb(0, 0, 0)"
         d="M23.645,136.995 L41.838,653.954 C41.838,653.954 42.912,663.786 32.294,672.411 C32.294,672.411 23.068,679.208 22.591,686.344 C22.591,686.344 14.736,741.309 66.436,741.431 L171.677,738.860 C171.677,738.860 178.125,735.882 180.567,734.017 C180.567,734.017 191.988,725.201 196.086,724.410 L201.921,723.645 L565.793,708.226 L1074.714,686.919 C1074.714,686.919 1077.063,685.866 1079.279,686.759 L1103.432,697.235 C1103.432,697.235 1106.028,699.732 1114.823,699.099 L1218.854,694.305 C1218.854,694.305 1246.582,689.122 1252.926,664.791 L1253.062,636.471 C1253.062,636.471 1251.552,632.641 1245.956,627.661 C1245.956,627.661 1232.260,617.787 1231.665,607.777 L1226.689,466.376 L1213.313,86.294 C1213.313,86.294 1212.769,77.737 1218.491,72.520 C1218.491,72.520 1230.912,59.948 1231.628,59.599 C1232.344,59.250 1234.679,52.049 1234.464,43.643 C1234.464,43.643 1229.827,15.329 1216.222,8.041 C1216.222,8.041 1205.284,-1.605 1180.876,1.357 L1081.291,3.729 L1059.105,16.969 C1059.105,16.969 1055.988,18.049 1052.357,18.339 L838.600,26.994 L179.425,57.894 C179.425,57.894 171.466,59.306 164.560,53.887 L150.747,47.577 C150.747,47.577 148.134,44.595 135.961,45.832 L34.193,50.546 C34.193,50.546 12.371,53.418 2.344,78.850 C2.344,78.850 -0.406,94.965 1.117,108.340 C1.117,108.340 1.062,113.682 9.433,119.374 C9.433,119.374 22.266,125.394 23.645,136.995 Z" />
   </clipPath>
</svg>