<svg 
 xmlns="http://www.w3.org/2000/svg"
 xmlns:xlink="http://www.w3.org/1999/xlink"
 width="264px" height="62px">
<path fill-rule="evenodd"  fill="rgb(0, 0, 15)"
 d="M246.000,59.999 L246.000,57.999 L262.000,57.999 L262.000,18.593 L245.406,1.999 L2.000,1.999 L2.000,41.855 L18.269,57.999 L219.000,57.999 L219.000,59.999 L17.769,59.999 L-0.000,42.230 L-0.000,-0.001 L245.999,-0.001 L264.000,17.999 L264.000,59.999 L246.000,59.999 ZM229.244,56.139 C229.355,56.225 229.620,56.498 229.680,56.592 C229.765,56.720 229.808,56.874 229.808,57.036 L229.808,57.788 C229.808,57.950 229.765,58.104 229.680,58.232 C229.620,58.326 229.355,58.590 229.244,58.676 C229.107,58.778 228.937,58.838 228.766,58.838 L230.038,61.101 L229.475,61.101 L228.211,58.838 L226.930,58.838 L226.930,61.101 L226.434,61.101 L226.434,55.977 L228.740,55.977 C228.919,55.977 229.107,56.037 229.244,56.139 ZM226.930,56.455 L226.930,58.360 L228.732,58.360 C228.783,58.360 228.834,58.351 228.877,58.326 C229.013,58.249 229.218,58.061 229.295,57.916 C229.312,57.882 229.312,57.822 229.312,57.771 L229.312,57.053 C229.312,57.002 229.312,56.942 229.295,56.908 C229.218,56.763 229.013,56.558 228.877,56.481 C228.834,56.455 228.783,56.455 228.732,56.455 L226.930,56.455 ZM234.596,56.874 C234.519,56.729 234.323,56.532 234.186,56.455 C234.143,56.430 234.092,56.421 234.041,56.421 L233.110,56.421 C233.067,56.421 233.007,56.430 232.982,56.447 C232.802,56.541 232.512,56.857 232.410,57.096 L231.923,56.951 C231.974,56.831 232.051,56.703 232.111,56.618 C232.230,56.455 232.461,56.191 232.640,56.080 C232.760,56.003 232.948,55.943 233.084,55.943 L234.049,55.943 C234.229,55.943 234.425,56.003 234.562,56.105 C234.673,56.191 234.929,56.464 234.989,56.558 C235.074,56.686 235.117,56.840 235.117,57.002 L235.117,57.600 C235.117,57.958 234.878,58.240 234.579,58.403 L232.794,59.359 C232.640,59.444 232.521,59.590 232.521,59.760 L232.521,60.623 L235.049,60.623 L235.049,61.101 L232.025,61.101 L232.025,59.718 C232.025,59.359 232.239,59.103 232.572,58.924 L234.365,57.967 C234.511,57.890 234.622,57.745 234.622,57.574 L234.622,57.019 C234.622,56.968 234.613,56.908 234.596,56.874 ZM238.032,60.640 C238.058,60.657 238.118,60.666 238.160,60.666 L239.117,60.666 C239.168,60.666 239.228,60.657 239.271,60.632 C239.407,60.555 239.595,60.358 239.672,60.213 C239.689,60.179 239.698,60.128 239.698,60.076 L239.698,59.103 C239.698,59.052 239.689,58.992 239.672,58.958 C239.595,58.812 239.407,58.625 239.271,58.548 C239.228,58.522 239.168,58.514 239.117,58.514 L237.221,58.514 L237.221,55.977 L239.928,55.977 L239.928,56.455 L237.716,56.455 L237.716,58.035 L239.125,58.035 C239.305,58.035 239.501,58.104 239.638,58.206 C239.749,58.292 240.005,58.548 240.065,58.642 C240.150,58.770 240.193,58.924 240.193,59.086 L240.193,60.085 C240.193,60.247 240.150,60.401 240.065,60.529 C240.005,60.623 239.749,60.896 239.638,60.982 C239.501,61.084 239.305,61.144 239.125,61.144 L238.135,61.144 C237.998,61.144 237.810,61.084 237.691,61.007 C237.511,60.896 237.281,60.640 237.161,60.478 C237.101,60.392 237.016,60.256 236.965,60.136 L237.460,60.000 C237.580,60.230 237.853,60.546 238.032,60.640 Z"/>
</svg>