<svg 
 xmlns="http://www.w3.org/2000/svg"
 xmlns:xlink="http://www.w3.org/1999/xlink"
 width="32px" height="1080px">
<path fill-rule="evenodd"  fill="rgb(252, 238, 9)"
 d="M17.000,1080.000 L17.000,942.000 L0.000,925.000 L0.000,920.000 L16.000,904.000 L16.000,848.000 L8.000,840.000 L8.000,825.000 L16.000,817.000 L16.000,628.000 L20.000,624.000 L16.000,620.000 L16.000,524.000 L1.000,509.000 L8.000,502.000 L8.000,459.000 L17.000,450.000 L17.000,401.000 L13.000,397.000 L13.000,311.000 L16.000,308.000 L16.000,300.000 L11.000,295.000 L6.000,300.000 L6.000,289.000 L11.000,294.000 L14.000,291.000 L14.000,231.000 L8.000,225.000 L8.000,210.000 L14.000,204.000 L14.000,100.000 L0.000,85.000 L17.000,67.000 L17.000,0.000 L32.000,0.000 L32.000,1080.000 L17.000,1080.000 ZM17.000,463.000 L14.000,463.000 L14.000,466.000 L17.000,466.000 L17.000,463.000 ZM17.000,478.000 L14.000,478.000 L14.000,481.000 L17.000,481.000 L17.000,478.000 ZM17.000,486.000 L14.000,486.000 L14.000,489.000 L17.000,489.000 L17.000,486.000 Z"/>
</svg>