<svg 
 xmlns="http://www.w3.org/2000/svg"
 xmlns:xlink="http://www.w3.org/1999/xlink"
 width="633px" height="30px">
<path fill-rule="evenodd"  fill="rgb(252, 238, 10)"
 d="M621.116,15.965 L613.463,24.029 L600.541,24.029 L584.574,7.026 L584.551,7.049 L584.532,7.026 L575.362,16.041 L432.759,16.041 L432.786,16.068 L426.129,16.068 L426.156,16.041 L429.759,16.041 L426.461,12.504 L431.969,7.026 L420.965,7.026 L426.461,12.504 L423.156,16.041 L341.442,16.041 L336.749,20.484 L327.502,29.954 L321.337,23.975 L285.081,24.029 L272.422,10.996 L238.790,10.996 L231.552,18.043 L157.290,18.005 L151.520,12.508 L142.871,20.799 L139.980,18.005 L-0.000,18.037 L-0.000,-0.000 L633.000,-0.000 L633.000,15.965 L621.116,15.965 ZM551.376,12.205 L553.111,12.205 L553.111,7.026 L551.376,7.026 L551.376,12.205 ZM548.752,12.205 L550.482,12.205 L550.482,7.026 L548.752,7.026 L548.752,12.205 ZM536.630,12.205 L538.360,12.205 L538.360,7.026 L536.630,7.026 L536.630,12.205 ZM515.831,12.205 L521.027,12.205 L521.027,7.026 L515.831,7.026 L515.831,12.205 ZM308.324,18.714 L310.059,18.714 L310.059,16.989 L308.324,16.989 L308.324,18.714 ZM301.683,18.714 L303.418,18.714 L303.418,13.536 L301.683,13.536 L301.683,18.714 ZM288.249,18.714 L289.983,18.714 L289.983,16.989 L288.249,16.989 L288.249,18.714 ZM288.249,15.260 L289.983,15.260 L289.983,13.536 L288.249,13.536 L288.249,15.260 Z"/>
</svg>